/* XPM */
static char *collectible[] = {
/* columns rows colors chars-per-pixel */
"64 64 5 1 ",
"  c None",
". c #FFD700",
"X c #FFDF00",
"o c #FFE700",
"O c #FFEF00",
/* pixels */
"                                                                ",
"                                                                ",
"                                                                ",
"                                                                ",
"                                                                ",
"                                                                ",
"                                                                ",
"                                                                ",
"                                                                ",
"                                                                ",
"                                                                ",
"                                                                ",
"                                                                ",
"                                                                ",
"                                                                ",
"                                                                ",
"                                                                ",
"                                                                ",
"                                                                ",
"                                                                ",
"                                                                ",
"                                                                ",
"                          ............                          ",
"                       ...XXXXXXXXXXXX...                       ",
"                     ..XXXXXXXXXXXXXXXXoo..                     ",
"                   ..XXXXXXXXXXXXXXXXXXXXoo..                   ",
"                  .XXXXXXXXXXXXXXXXXXXXXXXXoo.                  ",
"                 .XXXXXXXXXXXXXXXXXXXXXXXXXXoo.                 ",
"                .XXXXXXXXXXXXXXXXXXXXXXXXXXXXoo.                ",
"               .XXXXXXXXXXXXXXXXXXXXXXXXXXXXXXoo.               ",
"               .XXXXXXXXXXXXXXXXXXXXXXXXXXXXXXoo.               ",
"              .XXXXXXXXXXXXXXXXXXXXXXXXXXXXXXXXoo.              ",
"              .XXXXXXXXXXXXXXXXXXXXXXXXXXXXXXXXoo.              ",
"              .XXXXXXXXXXXXXXXXXXXXXXXXXXXXXXXXoo.              ",
"              .XXXXXXXXXXXXXXXXXXXXXXXXXXXXXXXXoo.              ",
"              .XXXXXXXXXXXXXXXXXXXXXXXXXXXXXXXXoo.              ",
"               .XXXXXXXXXXXXXXXXXXXXXXXXXXXXXXoo.               ",
"               .XXXXXXXXXXXXXXXXXXXXXXXXXXXXXXoo.               ",
"                .XXXXXXXXXXXXXXXXXXXXXXXXXXXXoo.                ",
"                 .XXXXXXXXXXXXXXXXXXXXXXXXXXoo.                 ",
"                  .XXXXXXXXXXXXXXXXXXXXXXXXoo.                  ",
"                   ..XXXXXXXXXXXXXXXXXXXXoo..                   ",
"                     ..XXXXXXXXXXXXXXXXoo..                     ",
"                       ...XXXXXXXXXXXX...                       ",
"                          ............                          ",
"                                                                ",
"                                                                ",
"                                                                ",
"                                                                ",
"                                                                ",
"                                                                ",
"                                                                ",
"                                                                ",
"                                                                ",
"                                                                ",
"                                                                ",
"                                                                ",
"                                                                ",
"                                                                ",
"                                                                ",
"                                                                ",
"                                                                ",
"                                                                ",
"                                                                ",
"                                                                "
};
